<mxfile host="app.diagrams.net" modified="2023-08-11T15:04:00.916Z" agent="Mozilla/5.0 (Macintosh; Intel Mac OS X 10_15_7) AppleWebKit/537.36 (KHTML, like Gecko) Chrome/115.0.0.0 Safari/537.36" etag="Y2C8fPjS_6kdKcvWN85L" version="21.6.8" type="github" pages="5">
  <diagram id="GKwk_b5rid1CKYbqW2ll" name="Backend">
    <mxGraphModel dx="1851" dy="570" grid="1" gridSize="10" guides="1" tooltips="1" connect="1" arrows="1" fold="1" page="1" pageScale="1" pageWidth="827" pageHeight="1169" math="0" shadow="0">
      <root>
        <mxCell id="0" />
        <mxCell id="1" parent="0" />
        <mxCell id="8iAT0xgs3FJ0WQIheX9q-3" value="&lt;h1&gt;Entities&lt;/h1&gt;&lt;p&gt;- Proxy&lt;br&gt;&lt;span style=&quot;background-color: initial;&quot;&gt;&lt;span style=&quot;white-space: pre;&quot;&gt;&#x9;&lt;/span&gt;- 1 x n Policies&lt;br&gt;&lt;/span&gt;&lt;span style=&quot;background-color: initial;&quot;&gt;&lt;span style=&quot;white-space: pre;&quot;&gt;&#x9;&lt;/span&gt;&lt;span style=&quot;white-space: pre;&quot;&gt;&#x9;&lt;/span&gt;- ProxyEndpoint PreFlow&lt;br&gt;&lt;/span&gt;&lt;span style=&quot;background-color: initial;&quot;&gt;&lt;span style=&quot;white-space: pre;&quot;&gt;&#x9;&lt;/span&gt;&lt;span style=&quot;white-space: pre;&quot;&gt;&#x9;&lt;/span&gt;- ProxyEndpoint PosFlow&lt;br&gt;&lt;/span&gt;&lt;span style=&quot;background-color: initial;&quot;&gt;&lt;span style=&quot;white-space: pre;&quot;&gt;&#x9;&lt;/span&gt;&lt;span style=&quot;white-space: pre;&quot;&gt;&#x9;&lt;/span&gt;- TargetEndpoint PostFlow&lt;br&gt;&lt;span style=&quot;white-space: pre;&quot;&gt;&#x9;&lt;/span&gt;&lt;span style=&quot;white-space: pre;&quot;&gt;&#x9;&lt;/span&gt;- TargetEndpoint PreFlow&lt;br&gt;&lt;/span&gt;&lt;span style=&quot;background-color: initial;&quot;&gt;&lt;span style=&quot;white-space: pre;&quot;&gt;&#x9;&lt;/span&gt;- 1 x n File Resources&lt;br&gt;&lt;span style=&quot;white-space: pre;&quot;&gt;&#x9;&lt;/span&gt;- n x n Products&lt;br&gt;&lt;/span&gt;&lt;/p&gt;&lt;p&gt;&lt;/p&gt;&lt;p&gt;&lt;span style=&quot;background-color: initial;&quot;&gt;- Product&lt;br&gt;&lt;span style=&quot;white-space: pre;&quot;&gt;&#x9;&lt;/span&gt;- n x n Proxy&lt;br&gt;&lt;span style=&quot;white-space: pre;&quot;&gt;&#x9;&lt;/span&gt;- n x n Application&lt;br&gt;&lt;/span&gt;&lt;/p&gt;&lt;p&gt;&lt;span style=&quot;background-color: initial;&quot;&gt;- Application&lt;br&gt;&lt;span style=&quot;white-space: pre;&quot;&gt;&#x9;&lt;/span&gt;- n x n Product&lt;br&gt;&lt;/span&gt;&lt;/p&gt;" style="text;html=1;strokeColor=none;fillColor=none;spacing=5;spacingTop=-20;whiteSpace=wrap;overflow=hidden;rounded=0;" parent="1" vertex="1">
          <mxGeometry x="-180" y="90" width="320" height="270" as="geometry" />
        </mxCell>
        <mxCell id="8iAT0xgs3FJ0WQIheX9q-5" value="&lt;h1&gt;Usecases&lt;/h1&gt;&lt;p&gt;- Create Proxy&lt;br&gt;&lt;span style=&quot;background-color: initial;&quot;&gt;- Create Policies&lt;br&gt;&lt;/span&gt;&lt;span style=&quot;background-color: initial;&quot;&gt;- Bind Policies to ProxyEndpoint PreFlow&lt;br&gt;&lt;/span&gt;&lt;span style=&quot;background-color: initial;&quot;&gt;- Bind Policies to ProxyEndpoint PostFlow&lt;br&gt;&lt;/span&gt;&lt;span style=&quot;background-color: initial;&quot;&gt;- Bind Policies to TargetEndpoint PostFlow&lt;br&gt;&lt;/span&gt;&lt;span style=&quot;background-color: initial;&quot;&gt;- Bind Policies to TargetEndpoint PreFlow&lt;br&gt;&lt;/span&gt;&lt;span style=&quot;background-color: initial;&quot;&gt;- Create Product&lt;br&gt;&lt;/span&gt;&lt;span style=&quot;background-color: initial;&quot;&gt;- Bind Proxy to Product&lt;br&gt;&lt;/span&gt;&lt;span style=&quot;background-color: initial;&quot;&gt;- Create Application&lt;br&gt;&lt;/span&gt;&lt;span style=&quot;background-color: initial;&quot;&gt;- Bind Product to Application&lt;/span&gt;&lt;/p&gt;" style="text;html=1;strokeColor=none;fillColor=none;spacing=5;spacingTop=-20;whiteSpace=wrap;overflow=hidden;rounded=0;" parent="1" vertex="1">
          <mxGeometry x="-180" y="390" width="240" height="200" as="geometry" />
        </mxCell>
      </root>
    </mxGraphModel>
  </diagram>
  <diagram id="vdZOGOwFcL8-SdBXGfeC" name="Backend Quality Warranty">
    <mxGraphModel dx="2261" dy="798" grid="1" gridSize="10" guides="1" tooltips="1" connect="1" arrows="1" fold="1" page="1" pageScale="1" pageWidth="827" pageHeight="1169" math="0" shadow="0">
      <root>
        <mxCell id="0" />
        <mxCell id="1" parent="0" />
        <mxCell id="UuWgy5EtENhjZNpAlKyN-1" value="" style="rounded=0;whiteSpace=wrap;html=1;" parent="1" vertex="1">
          <mxGeometry x="-570" y="410" width="530" height="460" as="geometry" />
        </mxCell>
        <mxCell id="28u4Evw6ZmKoehWRJMRo-15" value="" style="rounded=0;whiteSpace=wrap;html=1;" parent="1" vertex="1">
          <mxGeometry x="-570" y="40" width="530" height="330" as="geometry" />
        </mxCell>
        <mxCell id="28u4Evw6ZmKoehWRJMRo-3" style="edgeStyle=orthogonalEdgeStyle;rounded=0;orthogonalLoop=1;jettySize=auto;html=1;entryX=0.5;entryY=0;entryDx=0;entryDy=0;" parent="1" source="28u4Evw6ZmKoehWRJMRo-4" target="28u4Evw6ZmKoehWRJMRo-6" edge="1">
          <mxGeometry relative="1" as="geometry" />
        </mxCell>
        <mxCell id="28u4Evw6ZmKoehWRJMRo-4" value="Backend" style="ellipse;whiteSpace=wrap;html=1;" parent="1" vertex="1">
          <mxGeometry x="-365" y="60" width="120" height="80" as="geometry" />
        </mxCell>
        <mxCell id="28u4Evw6ZmKoehWRJMRo-5" style="edgeStyle=orthogonalEdgeStyle;rounded=0;orthogonalLoop=1;jettySize=auto;html=1;" parent="1" source="28u4Evw6ZmKoehWRJMRo-6" target="28u4Evw6ZmKoehWRJMRo-10" edge="1">
          <mxGeometry relative="1" as="geometry" />
        </mxCell>
        <mxCell id="28u4Evw6ZmKoehWRJMRo-6" value="Commit" style="rounded=0;whiteSpace=wrap;html=1;" parent="1" vertex="1">
          <mxGeometry x="-365" y="180" width="120" height="60" as="geometry" />
        </mxCell>
        <mxCell id="LB9G6rotDg3ES2SKx9s0-3" style="edgeStyle=orthogonalEdgeStyle;rounded=0;orthogonalLoop=1;jettySize=auto;html=1;" edge="1" parent="1" source="28u4Evw6ZmKoehWRJMRo-10" target="UuWgy5EtENhjZNpAlKyN-3">
          <mxGeometry relative="1" as="geometry" />
        </mxCell>
        <mxCell id="28u4Evw6ZmKoehWRJMRo-10" value="Pre-commit tool&lt;br&gt;(lint, pretty, test, test build)" style="rounded=0;whiteSpace=wrap;html=1;" parent="1" vertex="1">
          <mxGeometry x="-365" y="280" width="120" height="60" as="geometry" />
        </mxCell>
        <mxCell id="7YXm6RjWN43J1pmPWQ67-1" value="Docker container Nodejs 18.x" style="text;html=1;strokeColor=none;fillColor=none;align=center;verticalAlign=middle;whiteSpace=wrap;rounded=0;" parent="1" vertex="1">
          <mxGeometry x="-553" y="60" width="120" height="30" as="geometry" />
        </mxCell>
        <mxCell id="UuWgy5EtENhjZNpAlKyN-2" value="Github&amp;nbsp;" style="text;html=1;strokeColor=none;fillColor=none;align=center;verticalAlign=middle;whiteSpace=wrap;rounded=0;" parent="1" vertex="1">
          <mxGeometry x="-553" y="420" width="120" height="30" as="geometry" />
        </mxCell>
        <mxCell id="UuWgy5EtENhjZNpAlKyN-15" value="" style="group" parent="1" vertex="1" connectable="0">
          <mxGeometry x="-466.5" y="500" width="323" height="270" as="geometry" />
        </mxCell>
        <mxCell id="UuWgy5EtENhjZNpAlKyN-3" value="" style="rounded=0;whiteSpace=wrap;html=1;" parent="UuWgy5EtENhjZNpAlKyN-15" vertex="1">
          <mxGeometry width="323" height="270" as="geometry" />
        </mxCell>
        <mxCell id="UuWgy5EtENhjZNpAlKyN-13" value="Repository" style="text;html=1;strokeColor=none;fillColor=none;align=center;verticalAlign=middle;whiteSpace=wrap;rounded=0;" parent="UuWgy5EtENhjZNpAlKyN-15" vertex="1">
          <mxGeometry x="23.5" y="10" width="60" height="30" as="geometry" />
        </mxCell>
        <mxCell id="UuWgy5EtENhjZNpAlKyN-16" value="Governance" style="rounded=0;whiteSpace=wrap;html=1;" parent="UuWgy5EtENhjZNpAlKyN-15" vertex="1">
          <mxGeometry x="173.5" y="70" width="120" height="60" as="geometry" />
        </mxCell>
        <mxCell id="UuWgy5EtENhjZNpAlKyN-14" value="Actions" style="rounded=0;whiteSpace=wrap;html=1;verticalAlign=top;" parent="UuWgy5EtENhjZNpAlKyN-15" vertex="1">
          <mxGeometry x="33.5" y="70" width="120" height="140" as="geometry" />
        </mxCell>
        <mxCell id="UuWgy5EtENhjZNpAlKyN-22" value="Security&lt;br&gt;(secrets,&amp;nbsp;approval)" style="rounded=0;whiteSpace=wrap;html=1;" parent="UuWgy5EtENhjZNpAlKyN-15" vertex="1">
          <mxGeometry x="173.5" y="150" width="120" height="60" as="geometry" />
        </mxCell>
        <mxCell id="U4ggaOrv5RT9Rh6GeuZJ-2" value="Quality Warranty&lt;br&gt;(test, build, run)" style="rounded=0;whiteSpace=wrap;html=1;" parent="UuWgy5EtENhjZNpAlKyN-15" vertex="1">
          <mxGeometry x="50" y="100" width="90" height="100" as="geometry" />
        </mxCell>
      </root>
    </mxGraphModel>
  </diagram>
  <diagram id="aQsN4juDZ1ZSVnOjn3F-" name="End-to-end Usecases">
    <mxGraphModel dx="3247" dy="2056" grid="1" gridSize="10" guides="1" tooltips="1" connect="1" arrows="1" fold="1" page="1" pageScale="1" pageWidth="827" pageHeight="1169" math="0" shadow="0">
      <root>
        <mxCell id="0" />
        <mxCell id="1" parent="0" />
        <mxCell id="IYfwYNEMaTTDrs-BfT6v-15" style="edgeStyle=orthogonalEdgeStyle;rounded=0;orthogonalLoop=1;jettySize=auto;html=1;dashed=1;dashPattern=12 12;" parent="1" source="IYfwYNEMaTTDrs-BfT6v-11" target="IYfwYNEMaTTDrs-BfT6v-14" edge="1">
          <mxGeometry relative="1" as="geometry" />
        </mxCell>
        <mxCell id="IYfwYNEMaTTDrs-BfT6v-11" value="User" style="shape=umlActor;verticalLabelPosition=bottom;verticalAlign=top;html=1;outlineConnect=0;" parent="1" vertex="1">
          <mxGeometry x="-570" y="505" width="30" height="60" as="geometry" />
        </mxCell>
        <mxCell id="IYfwYNEMaTTDrs-BfT6v-13" value="Fiori" style="text;html=1;strokeColor=none;fillColor=none;align=center;verticalAlign=middle;whiteSpace=wrap;rounded=0;" parent="1" vertex="1">
          <mxGeometry x="-450" y="260" width="60" height="30" as="geometry" />
        </mxCell>
        <mxCell id="IYfwYNEMaTTDrs-BfT6v-34" style="edgeStyle=orthogonalEdgeStyle;rounded=0;orthogonalLoop=1;jettySize=auto;html=1;dashed=1;dashPattern=12 12;exitX=0.989;exitY=0.116;exitDx=0;exitDy=0;exitPerimeter=0;" parent="1" source="IYfwYNEMaTTDrs-BfT6v-14" target="IYfwYNEMaTTDrs-BfT6v-33" edge="1">
          <mxGeometry relative="1" as="geometry">
            <Array as="points">
              <mxPoint x="-371" y="360" />
            </Array>
          </mxGeometry>
        </mxCell>
        <mxCell id="IYfwYNEMaTTDrs-BfT6v-35" value="1 Post" style="edgeLabel;html=1;align=center;verticalAlign=middle;resizable=0;points=[];" parent="IYfwYNEMaTTDrs-BfT6v-34" vertex="1" connectable="0">
          <mxGeometry x="-0.9285" relative="1" as="geometry">
            <mxPoint x="4" as="offset" />
          </mxGeometry>
        </mxCell>
        <mxCell id="IYfwYNEMaTTDrs-BfT6v-120" style="edgeStyle=orthogonalEdgeStyle;rounded=0;orthogonalLoop=1;jettySize=auto;html=1;dashed=1;dashPattern=12 12;" parent="1" source="IYfwYNEMaTTDrs-BfT6v-14" target="IYfwYNEMaTTDrs-BfT6v-115" edge="1">
          <mxGeometry relative="1" as="geometry">
            <Array as="points">
              <mxPoint x="-270" y="640" />
              <mxPoint x="-270" y="640" />
            </Array>
          </mxGeometry>
        </mxCell>
        <mxCell id="IYfwYNEMaTTDrs-BfT6v-121" value="3 Get" style="edgeLabel;html=1;align=center;verticalAlign=middle;resizable=0;points=[];" parent="IYfwYNEMaTTDrs-BfT6v-120" vertex="1" connectable="0">
          <mxGeometry x="-0.3721" y="-1" relative="1" as="geometry">
            <mxPoint as="offset" />
          </mxGeometry>
        </mxCell>
        <mxCell id="IYfwYNEMaTTDrs-BfT6v-14" value="Frontend" style="rounded=0;whiteSpace=wrap;html=1;fillColor=#f5f5f5;fontColor=#333333;strokeColor=#666666;" parent="1" vertex="1">
          <mxGeometry x="-470" y="310" width="100" height="450" as="geometry" />
        </mxCell>
        <mxCell id="IYfwYNEMaTTDrs-BfT6v-16" style="edgeStyle=orthogonalEdgeStyle;rounded=0;orthogonalLoop=1;jettySize=auto;html=1;" parent="1" edge="1">
          <mxGeometry relative="1" as="geometry">
            <mxPoint x="282" y="370" as="sourcePoint" />
          </mxGeometry>
        </mxCell>
        <mxCell id="IYfwYNEMaTTDrs-BfT6v-17" value="1 x n" style="edgeLabel;html=1;align=center;verticalAlign=middle;resizable=0;points=[];" parent="IYfwYNEMaTTDrs-BfT6v-16" vertex="1" connectable="0">
          <mxGeometry x="-0.0817" y="-2" relative="1" as="geometry">
            <mxPoint as="offset" />
          </mxGeometry>
        </mxCell>
        <mxCell id="IYfwYNEMaTTDrs-BfT6v-19" style="edgeStyle=orthogonalEdgeStyle;rounded=0;orthogonalLoop=1;jettySize=auto;html=1;" parent="1" edge="1">
          <mxGeometry relative="1" as="geometry">
            <mxPoint x="467" y="370" as="sourcePoint" />
          </mxGeometry>
        </mxCell>
        <mxCell id="IYfwYNEMaTTDrs-BfT6v-20" value="n x n" style="edgeLabel;html=1;align=center;verticalAlign=middle;resizable=0;points=[];" parent="IYfwYNEMaTTDrs-BfT6v-19" vertex="1" connectable="0">
          <mxGeometry x="-0.0698" relative="1" as="geometry">
            <mxPoint as="offset" />
          </mxGeometry>
        </mxCell>
        <mxCell id="IYfwYNEMaTTDrs-BfT6v-25" value="API Management HML" style="text;html=1;strokeColor=none;fillColor=none;align=center;verticalAlign=middle;whiteSpace=wrap;rounded=0;" parent="1" vertex="1">
          <mxGeometry x="-62" y="260" width="120" height="30" as="geometry" />
        </mxCell>
        <mxCell id="IYfwYNEMaTTDrs-BfT6v-32" value="Github" style="text;html=1;strokeColor=none;fillColor=none;align=center;verticalAlign=middle;whiteSpace=wrap;rounded=0;" parent="1" vertex="1">
          <mxGeometry x="517" y="260" width="120" height="30" as="geometry" />
        </mxCell>
        <mxCell id="IYfwYNEMaTTDrs-BfT6v-44" style="edgeStyle=orthogonalEdgeStyle;rounded=0;orthogonalLoop=1;jettySize=auto;html=1;dashed=1;dashPattern=12 12;exitX=0.5;exitY=1;exitDx=0;exitDy=0;" parent="1" source="IYfwYNEMaTTDrs-BfT6v-33" target="IYfwYNEMaTTDrs-BfT6v-43" edge="1">
          <mxGeometry relative="1" as="geometry">
            <mxPoint x="390" y="500" as="targetPoint" />
            <Array as="points">
              <mxPoint x="577" y="430" />
            </Array>
          </mxGeometry>
        </mxCell>
        <mxCell id="IYfwYNEMaTTDrs-BfT6v-48" value="2 Post" style="edgeLabel;html=1;align=center;verticalAlign=middle;resizable=0;points=[];" parent="IYfwYNEMaTTDrs-BfT6v-44" vertex="1" connectable="0">
          <mxGeometry x="0.3424" y="1" relative="1" as="geometry">
            <mxPoint x="29" y="-1" as="offset" />
          </mxGeometry>
        </mxCell>
        <mxCell id="IYfwYNEMaTTDrs-BfT6v-33" value="Backend" style="rounded=0;whiteSpace=wrap;html=1;fillColor=#f5f5f5;fontColor=#333333;strokeColor=#666666;" parent="1" vertex="1">
          <mxGeometry x="517" y="330" width="120" height="60" as="geometry" />
        </mxCell>
        <mxCell id="IYfwYNEMaTTDrs-BfT6v-39" value="Application" style="rounded=0;whiteSpace=wrap;html=1;fillColor=#d5e8d4;strokeColor=#82b366;" parent="1" vertex="1">
          <mxGeometry x="-56" y="400" width="120" height="60" as="geometry" />
        </mxCell>
        <mxCell id="IYfwYNEMaTTDrs-BfT6v-143" value="1 x 1" style="edgeStyle=orthogonalEdgeStyle;rounded=0;orthogonalLoop=1;jettySize=auto;html=1;" parent="1" source="IYfwYNEMaTTDrs-BfT6v-42" target="IYfwYNEMaTTDrs-BfT6v-39" edge="1">
          <mxGeometry relative="1" as="geometry" />
        </mxCell>
        <mxCell id="IYfwYNEMaTTDrs-BfT6v-42" value="Product" style="rounded=0;whiteSpace=wrap;html=1;fillColor=#d5e8d4;strokeColor=#82b366;" parent="1" vertex="1">
          <mxGeometry x="123" y="400" width="120" height="60" as="geometry" />
        </mxCell>
        <mxCell id="IYfwYNEMaTTDrs-BfT6v-139" style="edgeStyle=orthogonalEdgeStyle;rounded=0;orthogonalLoop=1;jettySize=auto;html=1;exitX=0.5;exitY=1;exitDx=0;exitDy=0;entryX=0.5;entryY=0;entryDx=0;entryDy=0;" parent="1" source="IYfwYNEMaTTDrs-BfT6v-43" target="IYfwYNEMaTTDrs-BfT6v-138" edge="1">
          <mxGeometry relative="1" as="geometry" />
        </mxCell>
        <mxCell id="IYfwYNEMaTTDrs-BfT6v-146" value="1&lt;br&gt;x&lt;br&gt;n" style="edgeLabel;html=1;align=center;verticalAlign=middle;resizable=0;points=[];" parent="IYfwYNEMaTTDrs-BfT6v-139" vertex="1" connectable="0">
          <mxGeometry x="-0.1643" relative="1" as="geometry">
            <mxPoint as="offset" />
          </mxGeometry>
        </mxCell>
        <mxCell id="IYfwYNEMaTTDrs-BfT6v-142" style="edgeStyle=orthogonalEdgeStyle;rounded=0;orthogonalLoop=1;jettySize=auto;html=1;entryX=1;entryY=0.5;entryDx=0;entryDy=0;" parent="1" source="IYfwYNEMaTTDrs-BfT6v-43" target="IYfwYNEMaTTDrs-BfT6v-42" edge="1">
          <mxGeometry relative="1" as="geometry" />
        </mxCell>
        <mxCell id="IYfwYNEMaTTDrs-BfT6v-144" value="1 x 1" style="edgeLabel;html=1;align=center;verticalAlign=middle;resizable=0;points=[];" parent="IYfwYNEMaTTDrs-BfT6v-142" vertex="1" connectable="0">
          <mxGeometry x="-0.0149" y="2" relative="1" as="geometry">
            <mxPoint as="offset" />
          </mxGeometry>
        </mxCell>
        <mxCell id="IYfwYNEMaTTDrs-BfT6v-43" value="Proxy" style="rounded=0;whiteSpace=wrap;html=1;fillColor=#d5e8d4;strokeColor=#82b366;" parent="1" vertex="1">
          <mxGeometry x="310" y="400" width="120" height="60" as="geometry" />
        </mxCell>
        <mxCell id="IYfwYNEMaTTDrs-BfT6v-49" value="" style="endArrow=none;dashed=1;html=1;rounded=0;" parent="1" edge="1">
          <mxGeometry width="50" height="50" relative="1" as="geometry">
            <mxPoint x="-310" y="690" as="sourcePoint" />
            <mxPoint x="-310" y="250" as="targetPoint" />
          </mxGeometry>
        </mxCell>
        <mxCell id="IYfwYNEMaTTDrs-BfT6v-50" value="" style="endArrow=none;dashed=1;html=1;rounded=0;" parent="1" edge="1">
          <mxGeometry width="50" height="50" relative="1" as="geometry">
            <mxPoint x="457" y="690" as="sourcePoint" />
            <mxPoint x="457" y="250" as="targetPoint" />
          </mxGeometry>
        </mxCell>
        <mxCell id="IYfwYNEMaTTDrs-BfT6v-51" value="&lt;h1&gt;Create/bind Proxy, Product and Application in homologation environment&lt;/h1&gt;" style="text;html=1;strokeColor=none;fillColor=none;spacing=5;spacingTop=-20;whiteSpace=wrap;overflow=hidden;rounded=0;" parent="1" vertex="1">
          <mxGeometry x="-239" y="60" width="609" height="70" as="geometry" />
        </mxCell>
        <mxCell id="IYfwYNEMaTTDrs-BfT6v-52" style="edgeStyle=orthogonalEdgeStyle;rounded=0;orthogonalLoop=1;jettySize=auto;html=1;dashed=1;dashPattern=12 12;" parent="1" source="IYfwYNEMaTTDrs-BfT6v-53" target="IYfwYNEMaTTDrs-BfT6v-59" edge="1">
          <mxGeometry relative="1" as="geometry" />
        </mxCell>
        <mxCell id="IYfwYNEMaTTDrs-BfT6v-53" value="User" style="shape=umlActor;verticalLabelPosition=bottom;verticalAlign=top;html=1;outlineConnect=0;" parent="1" vertex="1">
          <mxGeometry x="-570" y="1150" width="30" height="60" as="geometry" />
        </mxCell>
        <mxCell id="IYfwYNEMaTTDrs-BfT6v-54" value="Fiori" style="text;html=1;strokeColor=none;fillColor=none;align=center;verticalAlign=middle;whiteSpace=wrap;rounded=0;" parent="1" vertex="1">
          <mxGeometry x="-450" y="950" width="60" height="30" as="geometry" />
        </mxCell>
        <mxCell id="IYfwYNEMaTTDrs-BfT6v-57" style="edgeStyle=orthogonalEdgeStyle;rounded=0;orthogonalLoop=1;jettySize=auto;html=1;dashed=1;dashPattern=12 12;exitX=1.016;exitY=0.306;exitDx=0;exitDy=0;exitPerimeter=0;" parent="1" source="IYfwYNEMaTTDrs-BfT6v-59" target="IYfwYNEMaTTDrs-BfT6v-71" edge="1">
          <mxGeometry relative="1" as="geometry" />
        </mxCell>
        <mxCell id="IYfwYNEMaTTDrs-BfT6v-58" value="1 Post" style="edgeLabel;html=1;align=center;verticalAlign=middle;resizable=0;points=[];" parent="IYfwYNEMaTTDrs-BfT6v-57" vertex="1" connectable="0">
          <mxGeometry x="-0.9285" relative="1" as="geometry">
            <mxPoint x="2" as="offset" />
          </mxGeometry>
        </mxCell>
        <mxCell id="IYfwYNEMaTTDrs-BfT6v-136" style="edgeStyle=orthogonalEdgeStyle;rounded=0;orthogonalLoop=1;jettySize=auto;html=1;dashed=1;dashPattern=12 12;" parent="1" source="IYfwYNEMaTTDrs-BfT6v-59" target="IYfwYNEMaTTDrs-BfT6v-131" edge="1">
          <mxGeometry relative="1" as="geometry">
            <Array as="points">
              <mxPoint x="-340" y="1300" />
              <mxPoint x="-340" y="1300" />
            </Array>
          </mxGeometry>
        </mxCell>
        <mxCell id="IYfwYNEMaTTDrs-BfT6v-137" value="3 Get" style="edgeLabel;html=1;align=center;verticalAlign=middle;resizable=0;points=[];" parent="IYfwYNEMaTTDrs-BfT6v-136" vertex="1" connectable="0">
          <mxGeometry x="-0.4062" y="1" relative="1" as="geometry">
            <mxPoint x="-6" y="1" as="offset" />
          </mxGeometry>
        </mxCell>
        <mxCell id="IYfwYNEMaTTDrs-BfT6v-59" value="Frontend" style="rounded=0;whiteSpace=wrap;html=1;fillColor=#f5f5f5;fontColor=#333333;strokeColor=#666666;" parent="1" vertex="1">
          <mxGeometry x="-470" y="1000" width="100" height="360" as="geometry" />
        </mxCell>
        <mxCell id="IYfwYNEMaTTDrs-BfT6v-60" style="edgeStyle=orthogonalEdgeStyle;rounded=0;orthogonalLoop=1;jettySize=auto;html=1;" parent="1" edge="1">
          <mxGeometry relative="1" as="geometry">
            <mxPoint x="325.99999999999955" y="1240" as="sourcePoint" />
          </mxGeometry>
        </mxCell>
        <mxCell id="IYfwYNEMaTTDrs-BfT6v-61" value="1 x n" style="edgeLabel;html=1;align=center;verticalAlign=middle;resizable=0;points=[];" parent="IYfwYNEMaTTDrs-BfT6v-60" vertex="1" connectable="0">
          <mxGeometry x="-0.0817" y="-2" relative="1" as="geometry">
            <mxPoint as="offset" />
          </mxGeometry>
        </mxCell>
        <mxCell id="IYfwYNEMaTTDrs-BfT6v-63" style="edgeStyle=orthogonalEdgeStyle;rounded=0;orthogonalLoop=1;jettySize=auto;html=1;" parent="1" edge="1">
          <mxGeometry relative="1" as="geometry">
            <mxPoint x="511.00000000000045" y="1240" as="sourcePoint" />
          </mxGeometry>
        </mxCell>
        <mxCell id="IYfwYNEMaTTDrs-BfT6v-64" value="n x n" style="edgeLabel;html=1;align=center;verticalAlign=middle;resizable=0;points=[];" parent="IYfwYNEMaTTDrs-BfT6v-63" vertex="1" connectable="0">
          <mxGeometry x="-0.0698" relative="1" as="geometry">
            <mxPoint as="offset" />
          </mxGeometry>
        </mxCell>
        <mxCell id="IYfwYNEMaTTDrs-BfT6v-67" value="API Management PRD" style="text;html=1;strokeColor=none;fillColor=none;align=center;verticalAlign=middle;whiteSpace=wrap;rounded=0;" parent="1" vertex="1">
          <mxGeometry x="-62" y="950" width="120" height="30" as="geometry" />
        </mxCell>
        <mxCell id="IYfwYNEMaTTDrs-BfT6v-68" value="Github" style="text;html=1;strokeColor=none;fillColor=none;align=center;verticalAlign=middle;whiteSpace=wrap;rounded=0;" parent="1" vertex="1">
          <mxGeometry x="370" y="950" width="120" height="30" as="geometry" />
        </mxCell>
        <mxCell id="IYfwYNEMaTTDrs-BfT6v-69" style="edgeStyle=orthogonalEdgeStyle;rounded=0;orthogonalLoop=1;jettySize=auto;html=1;dashed=1;dashPattern=12 12;exitX=0.5;exitY=1;exitDx=0;exitDy=0;" parent="1" source="IYfwYNEMaTTDrs-BfT6v-71" target="IYfwYNEMaTTDrs-BfT6v-78" edge="1">
          <mxGeometry relative="1" as="geometry">
            <Array as="points">
              <mxPoint x="430" y="1190" />
            </Array>
          </mxGeometry>
        </mxCell>
        <mxCell id="IYfwYNEMaTTDrs-BfT6v-70" value="2 Post" style="edgeLabel;html=1;align=center;verticalAlign=middle;resizable=0;points=[];" parent="IYfwYNEMaTTDrs-BfT6v-69" vertex="1" connectable="0">
          <mxGeometry x="0.3424" y="1" relative="1" as="geometry">
            <mxPoint x="29" y="-1" as="offset" />
          </mxGeometry>
        </mxCell>
        <mxCell id="IYfwYNEMaTTDrs-BfT6v-71" value="Backend" style="rounded=0;whiteSpace=wrap;html=1;fillColor=#f5f5f5;fontColor=#333333;strokeColor=#666666;" parent="1" vertex="1">
          <mxGeometry x="370" y="1080" width="120" height="60" as="geometry" />
        </mxCell>
        <mxCell id="IYfwYNEMaTTDrs-BfT6v-72" style="edgeStyle=orthogonalEdgeStyle;rounded=0;orthogonalLoop=1;jettySize=auto;html=1;" parent="1" source="IYfwYNEMaTTDrs-BfT6v-74" target="IYfwYNEMaTTDrs-BfT6v-77" edge="1">
          <mxGeometry relative="1" as="geometry" />
        </mxCell>
        <mxCell id="IYfwYNEMaTTDrs-BfT6v-73" value="1 x 1" style="edgeLabel;html=1;align=center;verticalAlign=middle;resizable=0;points=[];" parent="IYfwYNEMaTTDrs-BfT6v-72" vertex="1" connectable="0">
          <mxGeometry x="-0.0817" y="-2" relative="1" as="geometry">
            <mxPoint as="offset" />
          </mxGeometry>
        </mxCell>
        <mxCell id="IYfwYNEMaTTDrs-BfT6v-74" value="Application" style="rounded=0;whiteSpace=wrap;html=1;fillColor=#d5e8d4;strokeColor=#82b366;" parent="1" vertex="1">
          <mxGeometry x="-247" y="1160" width="120" height="60" as="geometry" />
        </mxCell>
        <mxCell id="IYfwYNEMaTTDrs-BfT6v-75" style="edgeStyle=orthogonalEdgeStyle;rounded=0;orthogonalLoop=1;jettySize=auto;html=1;" parent="1" source="IYfwYNEMaTTDrs-BfT6v-77" target="IYfwYNEMaTTDrs-BfT6v-78" edge="1">
          <mxGeometry relative="1" as="geometry" />
        </mxCell>
        <mxCell id="IYfwYNEMaTTDrs-BfT6v-76" value="1 x 1" style="edgeLabel;html=1;align=center;verticalAlign=middle;resizable=0;points=[];" parent="IYfwYNEMaTTDrs-BfT6v-75" vertex="1" connectable="0">
          <mxGeometry x="-0.0698" relative="1" as="geometry">
            <mxPoint as="offset" />
          </mxGeometry>
        </mxCell>
        <mxCell id="IYfwYNEMaTTDrs-BfT6v-77" value="Product" style="rounded=0;whiteSpace=wrap;html=1;fillColor=#d5e8d4;strokeColor=#82b366;" parent="1" vertex="1">
          <mxGeometry x="-62" y="1160" width="120" height="60" as="geometry" />
        </mxCell>
        <mxCell id="IYfwYNEMaTTDrs-BfT6v-78" value="Proxy Artifact" style="rounded=0;whiteSpace=wrap;html=1;fillColor=#d5e8d4;strokeColor=#82b366;" parent="1" vertex="1">
          <mxGeometry x="123" y="1160" width="120" height="60" as="geometry" />
        </mxCell>
        <mxCell id="IYfwYNEMaTTDrs-BfT6v-79" value="" style="endArrow=none;dashed=1;html=1;rounded=0;" parent="1" edge="1">
          <mxGeometry width="50" height="50" relative="1" as="geometry">
            <mxPoint x="-310" y="1460" as="sourcePoint" />
            <mxPoint x="-310" y="950" as="targetPoint" />
          </mxGeometry>
        </mxCell>
        <mxCell id="IYfwYNEMaTTDrs-BfT6v-80" value="" style="endArrow=none;dashed=1;html=1;rounded=0;" parent="1" edge="1">
          <mxGeometry width="50" height="50" relative="1" as="geometry">
            <mxPoint x="310" y="1460" as="sourcePoint" />
            <mxPoint x="310" y="950" as="targetPoint" />
          </mxGeometry>
        </mxCell>
        <mxCell id="IYfwYNEMaTTDrs-BfT6v-81" value="&lt;h1&gt;Deploy Proxy artifact and create/bind Product and Application&lt;/h1&gt;" style="text;html=1;strokeColor=none;fillColor=none;spacing=5;spacingTop=-20;whiteSpace=wrap;overflow=hidden;rounded=0;" parent="1" vertex="1">
          <mxGeometry x="-179.5" y="830" width="430" height="110" as="geometry" />
        </mxCell>
        <mxCell id="IYfwYNEMaTTDrs-BfT6v-113" style="edgeStyle=orthogonalEdgeStyle;rounded=0;orthogonalLoop=1;jettySize=auto;html=1;" parent="1" source="IYfwYNEMaTTDrs-BfT6v-115" target="IYfwYNEMaTTDrs-BfT6v-118" edge="1">
          <mxGeometry relative="1" as="geometry" />
        </mxCell>
        <mxCell id="IYfwYNEMaTTDrs-BfT6v-114" value="1 x 1" style="edgeLabel;html=1;align=center;verticalAlign=middle;resizable=0;points=[];" parent="IYfwYNEMaTTDrs-BfT6v-113" vertex="1" connectable="0">
          <mxGeometry x="-0.0817" y="-2" relative="1" as="geometry">
            <mxPoint as="offset" />
          </mxGeometry>
        </mxCell>
        <mxCell id="IYfwYNEMaTTDrs-BfT6v-115" value="Proxy" style="rounded=0;whiteSpace=wrap;html=1;fillColor=#d5e8d4;strokeColor=#82b366;" parent="1" vertex="1">
          <mxGeometry x="-247" y="610" width="120" height="60" as="geometry" />
        </mxCell>
        <mxCell id="IYfwYNEMaTTDrs-BfT6v-116" style="edgeStyle=orthogonalEdgeStyle;rounded=0;orthogonalLoop=1;jettySize=auto;html=1;" parent="1" source="IYfwYNEMaTTDrs-BfT6v-118" target="IYfwYNEMaTTDrs-BfT6v-119" edge="1">
          <mxGeometry relative="1" as="geometry" />
        </mxCell>
        <mxCell id="IYfwYNEMaTTDrs-BfT6v-117" value="1 x 1" style="edgeLabel;html=1;align=center;verticalAlign=middle;resizable=0;points=[];" parent="IYfwYNEMaTTDrs-BfT6v-116" vertex="1" connectable="0">
          <mxGeometry x="-0.0698" relative="1" as="geometry">
            <mxPoint as="offset" />
          </mxGeometry>
        </mxCell>
        <mxCell id="IYfwYNEMaTTDrs-BfT6v-118" value="Product" style="rounded=0;whiteSpace=wrap;html=1;fillColor=#d5e8d4;strokeColor=#82b366;" parent="1" vertex="1">
          <mxGeometry x="-62" y="610" width="120" height="60" as="geometry" />
        </mxCell>
        <mxCell id="IYfwYNEMaTTDrs-BfT6v-119" value="Application" style="rounded=0;whiteSpace=wrap;html=1;fillColor=#d5e8d4;strokeColor=#82b366;" parent="1" vertex="1">
          <mxGeometry x="123" y="610" width="120" height="60" as="geometry" />
        </mxCell>
        <mxCell id="IYfwYNEMaTTDrs-BfT6v-129" style="edgeStyle=orthogonalEdgeStyle;rounded=0;orthogonalLoop=1;jettySize=auto;html=1;" parent="1" source="IYfwYNEMaTTDrs-BfT6v-131" target="IYfwYNEMaTTDrs-BfT6v-134" edge="1">
          <mxGeometry relative="1" as="geometry" />
        </mxCell>
        <mxCell id="IYfwYNEMaTTDrs-BfT6v-130" value="1 x 1" style="edgeLabel;html=1;align=center;verticalAlign=middle;resizable=0;points=[];" parent="IYfwYNEMaTTDrs-BfT6v-129" vertex="1" connectable="0">
          <mxGeometry x="-0.0817" y="-2" relative="1" as="geometry">
            <mxPoint as="offset" />
          </mxGeometry>
        </mxCell>
        <mxCell id="IYfwYNEMaTTDrs-BfT6v-131" value="Proxy Artifact" style="rounded=0;whiteSpace=wrap;html=1;fillColor=#d5e8d4;strokeColor=#82b366;" parent="1" vertex="1">
          <mxGeometry x="-247" y="1270" width="120" height="60" as="geometry" />
        </mxCell>
        <mxCell id="IYfwYNEMaTTDrs-BfT6v-132" style="edgeStyle=orthogonalEdgeStyle;rounded=0;orthogonalLoop=1;jettySize=auto;html=1;" parent="1" source="IYfwYNEMaTTDrs-BfT6v-134" target="IYfwYNEMaTTDrs-BfT6v-135" edge="1">
          <mxGeometry relative="1" as="geometry" />
        </mxCell>
        <mxCell id="IYfwYNEMaTTDrs-BfT6v-133" value="1 x 1" style="edgeLabel;html=1;align=center;verticalAlign=middle;resizable=0;points=[];" parent="IYfwYNEMaTTDrs-BfT6v-132" vertex="1" connectable="0">
          <mxGeometry x="-0.0698" relative="1" as="geometry">
            <mxPoint as="offset" />
          </mxGeometry>
        </mxCell>
        <mxCell id="IYfwYNEMaTTDrs-BfT6v-134" value="Product" style="rounded=0;whiteSpace=wrap;html=1;fillColor=#d5e8d4;strokeColor=#82b366;" parent="1" vertex="1">
          <mxGeometry x="-62" y="1270" width="120" height="60" as="geometry" />
        </mxCell>
        <mxCell id="IYfwYNEMaTTDrs-BfT6v-135" value="Application" style="rounded=0;whiteSpace=wrap;html=1;fillColor=#d5e8d4;strokeColor=#82b366;" parent="1" vertex="1">
          <mxGeometry x="123" y="1270" width="120" height="60" as="geometry" />
        </mxCell>
        <mxCell id="IYfwYNEMaTTDrs-BfT6v-138" value="Policies" style="rounded=0;whiteSpace=wrap;html=1;fillColor=#d5e8d4;strokeColor=#82b366;" parent="1" vertex="1">
          <mxGeometry x="310" y="540" width="120" height="60" as="geometry" />
        </mxCell>
        <mxCell id="LbuE4Segq-55g9OZlDwn-1" style="edgeStyle=orthogonalEdgeStyle;rounded=0;orthogonalLoop=1;jettySize=auto;html=1;dashed=1;dashPattern=12 12;" parent="1" source="LbuE4Segq-55g9OZlDwn-2" target="LbuE4Segq-55g9OZlDwn-8" edge="1">
          <mxGeometry relative="1" as="geometry" />
        </mxCell>
        <mxCell id="LbuE4Segq-55g9OZlDwn-2" value="User" style="shape=umlActor;verticalLabelPosition=bottom;verticalAlign=top;html=1;outlineConnect=0;" parent="1" vertex="1">
          <mxGeometry x="-570" y="-360" width="30" height="60" as="geometry" />
        </mxCell>
        <mxCell id="LbuE4Segq-55g9OZlDwn-3" value="Fiori" style="text;html=1;strokeColor=none;fillColor=none;align=center;verticalAlign=middle;whiteSpace=wrap;rounded=0;" parent="1" vertex="1">
          <mxGeometry x="-448" y="-660" width="60" height="30" as="geometry" />
        </mxCell>
        <mxCell id="LbuE4Segq-55g9OZlDwn-37" style="edgeStyle=orthogonalEdgeStyle;rounded=0;orthogonalLoop=1;jettySize=auto;html=1;" parent="1" source="LbuE4Segq-55g9OZlDwn-8" target="LbuE4Segq-55g9OZlDwn-33" edge="1">
          <mxGeometry relative="1" as="geometry">
            <Array as="points">
              <mxPoint x="-330" y="-510" />
              <mxPoint x="-330" y="-510" />
            </Array>
          </mxGeometry>
        </mxCell>
        <mxCell id="LbuE4Segq-55g9OZlDwn-40" value="1 - GET" style="edgeLabel;html=1;align=center;verticalAlign=middle;resizable=0;points=[];" parent="LbuE4Segq-55g9OZlDwn-37" vertex="1" connectable="0">
          <mxGeometry x="-0.4205" y="-1" relative="1" as="geometry">
            <mxPoint as="offset" />
          </mxGeometry>
        </mxCell>
        <mxCell id="LbuE4Segq-55g9OZlDwn-39" style="edgeStyle=orthogonalEdgeStyle;rounded=0;orthogonalLoop=1;jettySize=auto;html=1;" parent="1" source="LbuE4Segq-55g9OZlDwn-8" target="LbuE4Segq-55g9OZlDwn-13" edge="1">
          <mxGeometry relative="1" as="geometry">
            <Array as="points">
              <mxPoint x="-150" y="-360" />
              <mxPoint x="-150" y="-360" />
            </Array>
          </mxGeometry>
        </mxCell>
        <mxCell id="LbuE4Segq-55g9OZlDwn-41" value="2 - POST" style="edgeLabel;html=1;align=center;verticalAlign=middle;resizable=0;points=[];" parent="LbuE4Segq-55g9OZlDwn-39" vertex="1" connectable="0">
          <mxGeometry x="-0.9319" y="-2" relative="1" as="geometry">
            <mxPoint as="offset" />
          </mxGeometry>
        </mxCell>
        <mxCell id="LbuE4Segq-55g9OZlDwn-8" value="Frontend" style="rounded=0;whiteSpace=wrap;html=1;fillColor=#f5f5f5;fontColor=#333333;strokeColor=#666666;" parent="1" vertex="1">
          <mxGeometry x="-468" y="-580" width="100" height="500" as="geometry" />
        </mxCell>
        <mxCell id="LbuE4Segq-55g9OZlDwn-9" value="Integration Suite PRD" style="text;html=1;strokeColor=none;fillColor=none;align=center;verticalAlign=middle;whiteSpace=wrap;rounded=0;" parent="1" vertex="1">
          <mxGeometry x="-60" y="-660" width="120" height="30" as="geometry" />
        </mxCell>
        <mxCell id="LbuE4Segq-55g9OZlDwn-10" value="Github" style="text;html=1;strokeColor=none;fillColor=none;align=center;verticalAlign=middle;whiteSpace=wrap;rounded=0;" parent="1" vertex="1">
          <mxGeometry x="490" y="-660" width="120" height="30" as="geometry" />
        </mxCell>
        <mxCell id="LbuE4Segq-55g9OZlDwn-13" value="Backend" style="rounded=0;whiteSpace=wrap;html=1;fillColor=#f5f5f5;fontColor=#333333;strokeColor=#666666;" parent="1" vertex="1">
          <mxGeometry x="500" y="-390" width="120" height="60" as="geometry" />
        </mxCell>
        <mxCell id="LbuE4Segq-55g9OZlDwn-22" value="" style="endArrow=none;dashed=1;html=1;rounded=0;" parent="1" edge="1">
          <mxGeometry width="50" height="50" relative="1" as="geometry">
            <mxPoint x="-308" y="-150" as="sourcePoint" />
            <mxPoint x="-308" y="-590" as="targetPoint" />
          </mxGeometry>
        </mxCell>
        <mxCell id="LbuE4Segq-55g9OZlDwn-23" value="" style="endArrow=none;dashed=1;html=1;rounded=0;" parent="1" edge="1">
          <mxGeometry width="50" height="50" relative="1" as="geometry">
            <mxPoint x="459" y="-150" as="sourcePoint" />
            <mxPoint x="459" y="-590" as="targetPoint" />
          </mxGeometry>
        </mxCell>
        <mxCell id="LbuE4Segq-55g9OZlDwn-24" value="&lt;h1&gt;Github Authentication&lt;/h1&gt;" style="text;html=1;strokeColor=none;fillColor=none;spacing=5;spacingTop=-20;whiteSpace=wrap;overflow=hidden;rounded=0;" parent="1" vertex="1">
          <mxGeometry x="-145.5" y="-760" width="287" height="60" as="geometry" />
        </mxCell>
        <mxCell id="LbuE4Segq-55g9OZlDwn-33" value="KVM&lt;br&gt;Github Token" style="rounded=0;whiteSpace=wrap;html=1;fillColor=#d5e8d4;strokeColor=#82b366;" parent="1" vertex="1">
          <mxGeometry x="-245" y="-540" width="120" height="60" as="geometry" />
        </mxCell>
        <mxCell id="LbuE4Segq-55g9OZlDwn-42" value="&lt;h1&gt;KeyValueMaps&lt;/h1&gt;&lt;p&gt;Para que o token de autorização não seja fixado no código da aplicação Fiori, será disponibilizado um KVM em ambiente Produtivo do Integration Suite para que por meio de uma requisição Get para o recurso do KVM, o Fiori obtenha o token e então possa utilizá-lo no header &quot;Authentication&quot; em todas as comunicações com o Github.&lt;/p&gt;" style="text;html=1;strokeColor=none;fillColor=none;spacing=5;spacingTop=-20;whiteSpace=wrap;overflow=hidden;rounded=0;" parent="1" vertex="1">
          <mxGeometry x="-825.5" y="-560" width="190" height="220" as="geometry" />
        </mxCell>
        <mxCell id="LbuE4Segq-55g9OZlDwn-43" value="&lt;b&gt;recurso:&lt;br&gt;&lt;br&gt;&lt;/b&gt;/Management.svc/KeyMapEntryValues(map_name=&#39;GithubTokens&#39;,&lt;br&gt;name=&#39;GITHUB_APIM_TOKEN&#39;)?&lt;br&gt;$format=json&amp;amp;$select=name,value,map_name&lt;b&gt;&lt;br&gt;&lt;/b&gt;" style="text;html=1;strokeColor=none;fillColor=none;align=left;verticalAlign=top;rounded=0;whiteSpace=wrap;" parent="1" vertex="1">
          <mxGeometry x="-840" y="-245" width="360" height="80" as="geometry" />
        </mxCell>
      </root>
    </mxGraphModel>
  </diagram>
  <diagram id="_xQn1kGOTd6AIyJdfKtX" name="Payload examples">
    <mxGraphModel dx="2261" dy="1967" grid="1" gridSize="10" guides="1" tooltips="1" connect="1" arrows="1" fold="1" page="1" pageScale="1" pageWidth="827" pageHeight="1169" math="0" shadow="0">
      <root>
        <mxCell id="0" />
        <mxCell id="1" parent="0" />
        <mxCell id="2ulLzqEtdTsofHfVHXD4-3" value="&lt;b&gt;Basic&lt;/b&gt;&lt;br&gt;&lt;br&gt;&lt;div&gt;{&lt;/div&gt;&lt;div&gt;&amp;nbsp; &amp;nbsp; &quot;route&quot;: &quot;/integration&quot;,&lt;/div&gt;&lt;div&gt;&lt;div style=&quot;border-color: var(--border-color);&quot;&gt;&amp;nbsp; &amp;nbsp; &quot;proxy&quot;: {&lt;/div&gt;&lt;div style=&quot;border-color: var(--border-color);&quot;&gt;&amp;nbsp; &amp;nbsp; &amp;nbsp; &amp;nbsp; &quot;name&quot;: &quot;testeProxy_v1&quot;,&lt;/div&gt;&lt;div style=&quot;border-color: var(--border-color);&quot;&gt;&amp;nbsp; &amp;nbsp; &amp;nbsp; &amp;nbsp; &quot;path&quot;: &quot;/v1/path&quot;,&lt;/div&gt;&lt;div style=&quot;border-color: var(--border-color);&quot;&gt;&amp;nbsp; &amp;nbsp; &amp;nbsp; &amp;nbsp; &quot;description&quot;: &quot;description test&quot;,&lt;/div&gt;&lt;div style=&quot;border-color: var(--border-color);&quot;&gt;&amp;nbsp; &amp;nbsp; &amp;nbsp; &amp;nbsp; &quot;domain&quot;: &quot;domainTest&quot;&lt;/div&gt;&lt;div style=&quot;border-color: var(--border-color);&quot;&gt;&amp;nbsp; &amp;nbsp; },&lt;/div&gt;&lt;/div&gt;&lt;div&gt;&amp;nbsp; &amp;nbsp; &quot;provider&quot;: {&lt;/div&gt;&lt;div&gt;&amp;nbsp; &amp;nbsp; &amp;nbsp; &amp;nbsp; &quot;name&quot;: &quot;providerName&quot;,&lt;br&gt;&lt;/div&gt;&lt;div&gt;&amp;nbsp; &amp;nbsp; &amp;nbsp; &amp;nbsp; &quot;path&quot;: &quot;/v1/path/provider&quot;,&lt;/div&gt;&lt;div&gt;&amp;nbsp; &amp;nbsp; &amp;nbsp; &amp;nbsp; &quot;auth&quot;: {&lt;/div&gt;&lt;div&gt;&amp;nbsp; &amp;nbsp; &amp;nbsp; &amp;nbsp; &amp;nbsp; &amp;nbsp; &quot;type&quot;: &quot;basicAuth&quot;,&lt;/div&gt;&lt;div&gt;&amp;nbsp; &amp;nbsp; &amp;nbsp; &amp;nbsp; &amp;nbsp; &amp;nbsp; &quot;properties&quot;: {&lt;/div&gt;&lt;div&gt;&amp;nbsp; &amp;nbsp; &amp;nbsp; &amp;nbsp; &amp;nbsp; &amp;nbsp; &amp;nbsp; &amp;nbsp; &quot;username&quot;: &quot;userTest&quot;,&lt;/div&gt;&lt;div&gt;&amp;nbsp; &amp;nbsp; &amp;nbsp; &amp;nbsp; &amp;nbsp; &amp;nbsp; &amp;nbsp; &amp;nbsp; &quot;password&quot;: &quot;passwordTest&quot;&lt;/div&gt;&lt;div&gt;&amp;nbsp; &amp;nbsp; &amp;nbsp; &amp;nbsp; &amp;nbsp; &amp;nbsp; }&lt;/div&gt;&lt;div&gt;&amp;nbsp; &amp;nbsp; &amp;nbsp; &amp;nbsp; }&lt;/div&gt;&lt;div&gt;&amp;nbsp; &amp;nbsp; },&lt;/div&gt;&lt;div&gt;&amp;nbsp; &amp;nbsp; &quot;product&quot;: {&lt;/div&gt;&lt;div&gt;&amp;nbsp; &amp;nbsp; &amp;nbsp; &amp;nbsp; &quot;name&quot;: &quot;productTest&quot;&lt;/div&gt;&lt;div&gt;&amp;nbsp; &amp;nbsp; },&lt;/div&gt;&lt;div&gt;&amp;nbsp; &amp;nbsp; &quot;application&quot;: {&lt;/div&gt;&lt;div&gt;&amp;nbsp; &amp;nbsp; &amp;nbsp; &amp;nbsp; &quot;name&quot;: &quot;applicationNameTest&quot;&lt;/div&gt;&lt;div&gt;&amp;nbsp; &amp;nbsp; }&lt;/div&gt;&lt;div&gt;}&lt;/div&gt;" style="text;html=1;strokeColor=none;fillColor=none;align=left;verticalAlign=middle;whiteSpace=wrap;rounded=0;" parent="1" vertex="1">
          <mxGeometry x="10" y="40" width="216" height="420" as="geometry" />
        </mxCell>
        <mxCell id="2ulLzqEtdTsofHfVHXD4-4" value="&lt;b&gt;OAuth2.0&lt;/b&gt;&lt;br&gt;&lt;br&gt;&lt;div&gt;&lt;div&gt;{&lt;/div&gt;&lt;div&gt;&amp;nbsp; &amp;nbsp; &quot;route&quot;: &quot;/integration&quot;,&lt;/div&gt;&lt;div&gt;&lt;div style=&quot;border-color: var(--border-color);&quot;&gt;&amp;nbsp; &amp;nbsp; &quot;proxy&quot;: {&lt;/div&gt;&lt;div style=&quot;border-color: var(--border-color);&quot;&gt;&amp;nbsp; &amp;nbsp; &amp;nbsp; &amp;nbsp; &quot;name&quot;: &quot;testeProxy_v1&quot;,&lt;/div&gt;&lt;div style=&quot;border-color: var(--border-color);&quot;&gt;&amp;nbsp; &amp;nbsp; &amp;nbsp; &amp;nbsp; &quot;path&quot;: &quot;/v1/path&quot;,&lt;/div&gt;&lt;div style=&quot;border-color: var(--border-color);&quot;&gt;&amp;nbsp; &amp;nbsp; &amp;nbsp; &amp;nbsp; &quot;description&quot;: &quot;descriptionTest&quot;,&lt;/div&gt;&lt;div style=&quot;border-color: var(--border-color);&quot;&gt;&amp;nbsp; &amp;nbsp; &amp;nbsp; &amp;nbsp; &quot;domain&quot;: &quot;domainTest&quot;&lt;/div&gt;&lt;div style=&quot;border-color: var(--border-color);&quot;&gt;&amp;nbsp; &amp;nbsp; },&lt;/div&gt;&lt;/div&gt;&lt;div&gt;&amp;nbsp; &amp;nbsp; &quot;provider&quot;: {&lt;/div&gt;&lt;div&gt;&amp;nbsp; &amp;nbsp; &amp;nbsp; &amp;nbsp; &quot;name&quot;: &quot;providerNameTest&quot;,&lt;br&gt;&lt;/div&gt;&lt;div&gt;&amp;nbsp; &amp;nbsp; &amp;nbsp; &amp;nbsp; &quot;path&quot;: &quot;/v1/path/provider&quot;,&lt;/div&gt;&lt;div&gt;&amp;nbsp; &amp;nbsp; &amp;nbsp; &amp;nbsp; &quot;auth&quot;: {&lt;/div&gt;&lt;div&gt;&amp;nbsp; &amp;nbsp; &amp;nbsp; &amp;nbsp; &amp;nbsp; &amp;nbsp; &quot;type&quot;: &quot;oauth2.0&quot;,&lt;/div&gt;&lt;div&gt;&amp;nbsp; &amp;nbsp; &amp;nbsp; &amp;nbsp; &amp;nbsp; &amp;nbsp; &quot;properties&quot;: {&lt;/div&gt;&lt;div&gt;&amp;nbsp; &amp;nbsp; &amp;nbsp; &amp;nbsp; &amp;nbsp; &amp;nbsp; &amp;nbsp; &amp;nbsp; &quot;clientId&quot;: &quot;clientIdTest&quot;,&lt;/div&gt;&lt;div&gt;&amp;nbsp; &amp;nbsp; &amp;nbsp; &amp;nbsp; &amp;nbsp; &amp;nbsp; &amp;nbsp; &amp;nbsp; &quot;clientSecret&quot;: &quot;clientSecretTest&quot;,&lt;/div&gt;&lt;div&gt;&amp;nbsp; &amp;nbsp; &amp;nbsp; &amp;nbsp; &amp;nbsp; &amp;nbsp; &amp;nbsp; &amp;nbsp; &quot;tokenUrl&quot;: &quot;tokenUrlTest&quot;&lt;/div&gt;&lt;div&gt;&amp;nbsp; &amp;nbsp; &amp;nbsp; &amp;nbsp; &amp;nbsp; &amp;nbsp; }&lt;/div&gt;&lt;div&gt;&amp;nbsp; &amp;nbsp; &amp;nbsp; &amp;nbsp; }&lt;/div&gt;&lt;div&gt;&amp;nbsp; &amp;nbsp; },&lt;/div&gt;&lt;div&gt;&amp;nbsp; &amp;nbsp; &quot;product&quot;: {&lt;/div&gt;&lt;div&gt;&amp;nbsp; &amp;nbsp; &amp;nbsp; &amp;nbsp; &quot;name&quot;: &quot;productNameTest&quot;&lt;/div&gt;&lt;div&gt;&amp;nbsp; &amp;nbsp; },&lt;/div&gt;&lt;div&gt;&amp;nbsp; &amp;nbsp; &quot;application&quot;: {&lt;/div&gt;&lt;div&gt;&amp;nbsp; &amp;nbsp; &amp;nbsp; &amp;nbsp; &quot;name&quot;: &quot;applicationNameTest&quot;&lt;/div&gt;&lt;div&gt;&amp;nbsp; &amp;nbsp; }&lt;/div&gt;&lt;div&gt;}&lt;/div&gt;&lt;/div&gt;" style="text;html=1;strokeColor=none;fillColor=none;align=left;verticalAlign=middle;whiteSpace=wrap;rounded=0;" parent="1" vertex="1">
          <mxGeometry x="248" y="40" width="310" height="430" as="geometry" />
        </mxCell>
        <mxCell id="2ulLzqEtdTsofHfVHXD4-5" value="Non-PRD" style="text;html=1;strokeColor=none;fillColor=none;align=center;verticalAlign=middle;whiteSpace=wrap;rounded=0;fontSize=20;fontStyle=1" parent="1" vertex="1">
          <mxGeometry x="10" width="100" height="30" as="geometry" />
        </mxCell>
        <mxCell id="2ulLzqEtdTsofHfVHXD4-7" value="PRD" style="text;html=1;strokeColor=none;fillColor=none;align=center;verticalAlign=middle;whiteSpace=wrap;rounded=0;fontSize=20;fontStyle=1" parent="1" vertex="1">
          <mxGeometry y="520" width="60" height="30" as="geometry" />
        </mxCell>
        <mxCell id="Zq75vPZFLUIf9RzsWeoa-3" value="&lt;div&gt;&lt;b style=&quot;background-color: initial;&quot;&gt;BasicAuth&lt;/b&gt;&lt;br&gt;&lt;/div&gt;&lt;div&gt;&lt;br&gt;&lt;/div&gt;&lt;div&gt;{&lt;/div&gt;&lt;div&gt;&amp;nbsp; &amp;nbsp; &quot;route&quot;: &quot;/deploy&quot;,&lt;/div&gt;&lt;div&gt;&amp;nbsp; &amp;nbsp; &quot;proxy&quot;: {&lt;/div&gt;&lt;div&gt;&amp;nbsp; &amp;nbsp; &amp;nbsp; &amp;nbsp; &quot;name&quot;: &quot;proxyNameTest_v1&quot;&lt;/div&gt;&lt;div&gt;&amp;nbsp; &amp;nbsp; },&lt;/div&gt;&lt;div&gt;&amp;nbsp; &amp;nbsp; &quot;product&quot;: {&lt;/div&gt;&lt;div&gt;&amp;nbsp; &amp;nbsp; &amp;nbsp; &amp;nbsp; &quot;name&quot;: &quot;productNameTest&quot;&lt;/div&gt;&lt;div&gt;&amp;nbsp; &amp;nbsp; },&lt;/div&gt;&lt;div&gt;&amp;nbsp; &amp;nbsp; &quot;application&quot;: {&lt;/div&gt;&lt;div&gt;&amp;nbsp; &amp;nbsp; &amp;nbsp; &amp;nbsp; &quot;name&quot;: &quot;applicationNameTest&quot;&lt;/div&gt;&lt;div&gt;&amp;nbsp; &amp;nbsp; },&lt;/div&gt;&lt;div&gt;&amp;nbsp; &amp;nbsp; &quot;provider&quot;: {&lt;/div&gt;&lt;div&gt;&amp;nbsp; &amp;nbsp; &amp;nbsp; &amp;nbsp; &quot;auth&quot;: {&lt;/div&gt;&lt;div&gt;&lt;span style=&quot;white-space: pre;&quot;&gt;            &quot;type&quot;:&quot;basicAuth&quot;,&lt;/span&gt;&lt;/div&gt;&lt;div&gt;&lt;span style=&quot;white-space: pre;&quot;&gt;            &quot;properties:{&lt;/span&gt;&lt;/div&gt;&lt;div&gt;&lt;span style=&quot;white-space: pre;&quot;&gt;&lt;span style=&quot;white-space: pre;&quot;&gt;&#x9;&lt;/span&gt;&lt;span style=&quot;white-space: pre;&quot;&gt;&#x9;&lt;/span&gt;&quot;username&quot;: &quot;userTest&quot;&lt;br&gt;&lt;/span&gt;&lt;/div&gt;&lt;div&gt;&lt;span style=&quot;white-space: pre;&quot;&gt;                &quot;password&quot;: &quot;passwordTest&quot;&lt;/span&gt;&lt;/div&gt;&lt;div&gt;&lt;span style=&quot;white-space: pre;&quot;&gt;            }&lt;/span&gt;&lt;/div&gt;&lt;div&gt;&amp;nbsp; &amp;nbsp; &amp;nbsp; &amp;nbsp; }&lt;/div&gt;&lt;div&gt;&lt;span style=&quot;background-color: initial;&quot;&gt;&amp;nbsp; &amp;nbsp; }&lt;/span&gt;&lt;/div&gt;&lt;div&gt;}&lt;/div&gt;" style="text;html=1;strokeColor=none;fillColor=none;align=left;verticalAlign=middle;whiteSpace=wrap;rounded=0;" parent="1" vertex="1">
          <mxGeometry x="10" y="570" width="210" height="350" as="geometry" />
        </mxCell>
        <mxCell id="Zq75vPZFLUIf9RzsWeoa-4" value="&lt;div&gt;&lt;b&gt;OAuth2.0&lt;/b&gt;&lt;/div&gt;&lt;div&gt;&lt;br&gt;&lt;/div&gt;&lt;div&gt;{&lt;/div&gt;&lt;div&gt;&amp;nbsp; &amp;nbsp; &quot;route&quot;: &quot;/deploy&quot;,&lt;/div&gt;&lt;div&gt;&amp;nbsp; &amp;nbsp; &quot;proxy&quot;: {&lt;/div&gt;&lt;div&gt;&amp;nbsp; &amp;nbsp; &amp;nbsp; &amp;nbsp; &quot;name&quot;: &quot;proxyNameTest_v1&quot;&lt;/div&gt;&lt;div&gt;&amp;nbsp; &amp;nbsp; },&lt;/div&gt;&lt;div&gt;&amp;nbsp; &amp;nbsp; &quot;product&quot;: {&lt;/div&gt;&lt;div&gt;&amp;nbsp; &amp;nbsp; &amp;nbsp; &amp;nbsp; &quot;name&quot;: &quot;productNameTest&quot;&lt;/div&gt;&lt;div&gt;&amp;nbsp; &amp;nbsp; },&lt;/div&gt;&lt;div&gt;&amp;nbsp; &amp;nbsp; &quot;application&quot;: {&lt;/div&gt;&lt;div&gt;&amp;nbsp; &amp;nbsp; &amp;nbsp; &amp;nbsp; &quot;name&quot;: &quot;applicationNameTest&quot;&lt;/div&gt;&lt;div&gt;&amp;nbsp; &amp;nbsp; },&lt;/div&gt;&lt;div&gt;&amp;nbsp; &amp;nbsp; &quot;provider&quot;: {&lt;/div&gt;&lt;div&gt;&amp;nbsp; &amp;nbsp; &amp;nbsp; &amp;nbsp; &quot;auth&quot;: {&lt;/div&gt;&lt;div&gt;&lt;span style=&quot;white-space: pre;&quot;&gt;            &quot;type&quot;:&quot;oauth2.0&quot;,&lt;/span&gt;&lt;/div&gt;&lt;div&gt;&lt;span style=&quot;white-space: pre;&quot;&gt;            &quot;properties:{&lt;/span&gt;&lt;/div&gt;&lt;div&gt;&lt;span style=&quot;white-space: pre;&quot;&gt;&lt;span style=&quot;white-space: pre;&quot;&gt;&#x9;&lt;/span&gt;&lt;span style=&quot;white-space: pre;&quot;&gt;&#x9;&lt;/span&gt;&quot;cliendId&quot;: &quot;clientIdTest&quot;,&lt;br&gt;&lt;/span&gt;&lt;/div&gt;&lt;div&gt;&lt;span style=&quot;white-space: pre;&quot;&gt;                &quot;clientSecret&quot;: &quot;clientSecretTest&quot;,&lt;/span&gt;&lt;/div&gt;&lt;div&gt;&lt;span style=&quot;white-space: pre;&quot;&gt;                &quot;tokenUrl&quot;: &quot;tokenUrlTest&quot;&lt;/span&gt;&lt;/div&gt;&lt;div&gt;&lt;span style=&quot;white-space: pre;&quot;&gt;            }&lt;/span&gt;&lt;/div&gt;&lt;div&gt;&amp;nbsp; &amp;nbsp; &amp;nbsp; &amp;nbsp; }&lt;/div&gt;&lt;div&gt;&lt;span style=&quot;background-color: initial;&quot;&gt;&amp;nbsp; &amp;nbsp; }&lt;/span&gt;&lt;/div&gt;&lt;div&gt;}&lt;/div&gt;" style="text;html=1;strokeColor=none;fillColor=none;align=left;verticalAlign=middle;whiteSpace=wrap;rounded=0;" parent="1" vertex="1">
          <mxGeometry x="230" y="570" width="295" height="350" as="geometry" />
        </mxCell>
        <mxCell id="ELQwtIfA0z0CD1CLoGti-2" value="&lt;div&gt;Payload fields (in parentheses, as they are in the frontend form).&lt;/div&gt;&lt;div&gt;If there is no nomenclature in parentheses, the field is only in the payload.&lt;/div&gt;&lt;div&gt;&lt;br&gt;&lt;/div&gt;&lt;div&gt;&lt;br&gt;&lt;/div&gt;&lt;div&gt;route:&lt;/div&gt;&lt;div&gt;&amp;nbsp; &amp;nbsp; &amp;nbsp;type: string&lt;/div&gt;&lt;div&gt;&amp;nbsp; &amp;nbsp; &amp;nbsp;description: used in the backend to define the integration behavior. Simulates HTTP routes.&lt;/div&gt;&lt;div&gt;&lt;br&gt;&lt;/div&gt;&lt;div&gt;&lt;br&gt;&lt;/div&gt;&lt;div&gt;proxy (API):&lt;/div&gt;&lt;div&gt;&amp;nbsp; &amp;nbsp; &amp;nbsp;type: object&lt;/div&gt;&lt;div&gt;&amp;nbsp; &amp;nbsp; &amp;nbsp;Description: Proxy for Domain API Management API.&lt;/div&gt;&lt;div&gt;&lt;br&gt;&lt;/div&gt;&lt;div&gt;&lt;br&gt;&lt;/div&gt;&lt;div&gt;&amp;nbsp; &amp;nbsp; &amp;nbsp;name (Name):&lt;/div&gt;&lt;div&gt;&amp;nbsp; &amp;nbsp; &amp;nbsp; &amp;nbsp; &amp;nbsp;type: string&lt;/div&gt;&lt;div&gt;&amp;nbsp; &amp;nbsp; &amp;nbsp; &amp;nbsp; &amp;nbsp;validations: alphabetic only, must not contain spaces, special characters or numbers.&lt;/div&gt;&lt;div&gt;&amp;nbsp; &amp;nbsp; &amp;nbsp; &amp;nbsp; &amp;nbsp;description: proxy name + version.&lt;/div&gt;&lt;div&gt;&amp;nbsp; &amp;nbsp; &amp;nbsp; &amp;nbsp; &amp;nbsp; &amp;nbsp; &amp;nbsp;example: &quot;myProxy_v1&quot;, &quot;testProxy_v2&quot;&lt;/div&gt;&lt;div&gt;&amp;nbsp; &amp;nbsp; &amp;nbsp; &amp;nbsp; &amp;nbsp; &amp;nbsp; &amp;nbsp;Note: It is not necessary to include version validation in this field. If the user types &quot;proxy_v1&quot;, the result will be&lt;/div&gt;&lt;div&gt;&amp;nbsp; &amp;nbsp; &amp;nbsp; &amp;nbsp; &amp;nbsp; &amp;nbsp; &amp;nbsp;&quot;proxy_v1_v1&quot;. This is up to the person in charge.&lt;/div&gt;&lt;div&gt;&lt;br&gt;&lt;/div&gt;&lt;div&gt;&lt;br&gt;&lt;/div&gt;&lt;div&gt;&amp;nbsp; &amp;nbsp; &amp;nbsp;path(Base path):&lt;/div&gt;&lt;div&gt;&amp;nbsp; &amp;nbsp; &amp;nbsp; &amp;nbsp; &amp;nbsp;type: string&lt;/div&gt;&lt;div&gt;&amp;nbsp; &amp;nbsp; &amp;nbsp; &amp;nbsp; &amp;nbsp;validations: it must start with &quot;/&quot;, followed by the proxy version, obtained in consultation with API Management (v1, v2, v3... etc) and the information that the user enters.&lt;/div&gt;&lt;div&gt;&amp;nbsp; &amp;nbsp; &amp;nbsp; &amp;nbsp; &amp;nbsp;description: path used by the client to communicate with the proxy.&lt;/div&gt;&lt;div&gt;&amp;nbsp; &amp;nbsp; &amp;nbsp; &amp;nbsp; &amp;nbsp; &amp;nbsp; &amp;nbsp;example: &quot;/v1/pathinformed/no/form&quot;&lt;/div&gt;&lt;div&gt;&lt;br&gt;&lt;/div&gt;&lt;div&gt;&lt;br&gt;&lt;/div&gt;&lt;div&gt;&amp;nbsp; &amp;nbsp; &amp;nbsp;description (Description):&lt;/div&gt;&lt;div&gt;&amp;nbsp; &amp;nbsp; &amp;nbsp; &amp;nbsp; &amp;nbsp;type: string&lt;/div&gt;&lt;div&gt;&amp;nbsp; &amp;nbsp; &amp;nbsp; &amp;nbsp; &amp;nbsp;validations: must not accept special characters like ~, ç, etc. It can contain spaces and numbers.&lt;/div&gt;&lt;div&gt;&amp;nbsp; &amp;nbsp; &amp;nbsp; &amp;nbsp; &amp;nbsp;description: proxy description&lt;/div&gt;&lt;div&gt;&amp;nbsp; &amp;nbsp; &amp;nbsp; &amp;nbsp; &amp;nbsp; &amp;nbsp; &amp;nbsp;example: &quot;My description has no special characters&quot;&lt;/div&gt;&lt;div&gt;&lt;br&gt;&lt;/div&gt;&lt;div&gt;&lt;br&gt;&lt;/div&gt;&lt;div&gt;&amp;nbsp; &amp;nbsp; &amp;nbsp;domain (Domain):&lt;/div&gt;&lt;div&gt;&amp;nbsp; &amp;nbsp; &amp;nbsp; &amp;nbsp; &amp;nbsp;type: string&lt;/div&gt;&lt;div&gt;&amp;nbsp; &amp;nbsp; &amp;nbsp; &amp;nbsp; &amp;nbsp;description: Proxy domain.&lt;/div&gt;&lt;div&gt;&lt;br&gt;&lt;/div&gt;&lt;div&gt;&lt;br&gt;&lt;/div&gt;&lt;div&gt;provider (Provider):&lt;/div&gt;&lt;div&gt;&amp;nbsp; &amp;nbsp; &amp;nbsp;type: object&lt;/div&gt;&lt;div&gt;&amp;nbsp; &amp;nbsp; &amp;nbsp;description: responsible for providing resources to the proxy.&lt;/div&gt;&lt;div&gt;&lt;br&gt;&lt;/div&gt;&lt;div&gt;&lt;br&gt;&lt;/div&gt;&lt;div&gt;&amp;nbsp; &amp;nbsp; &amp;nbsp;name (dropdown list):&lt;/div&gt;&lt;div&gt;&amp;nbsp; &amp;nbsp; &amp;nbsp; &amp;nbsp; &amp;nbsp;type: string&lt;/div&gt;&lt;div&gt;&amp;nbsp; &amp;nbsp; &amp;nbsp; &amp;nbsp; &amp;nbsp;description: provider name. The frontend must perform a query in API Management, render&lt;/div&gt;&lt;div&gt;&amp;nbsp; &amp;nbsp; &amp;nbsp; &amp;nbsp; &amp;nbsp;the available providers and make them available in a list so that the user can select one of them.&lt;/div&gt;&lt;div&gt;&lt;br&gt;&lt;/div&gt;&lt;div&gt;&lt;br&gt;&lt;/div&gt;&lt;div&gt;&amp;nbsp; &amp;nbsp; &amp;nbsp;path (Provider Path):&lt;/div&gt;&lt;div&gt;&amp;nbsp; &amp;nbsp; &amp;nbsp; &amp;nbsp; &amp;nbsp;type: string&lt;/div&gt;&lt;div&gt;&amp;nbsp; &amp;nbsp; &amp;nbsp; &amp;nbsp; &amp;nbsp;validations: must start with &quot;/&quot;&lt;/div&gt;&lt;div&gt;&amp;nbsp; &amp;nbsp; &amp;nbsp; &amp;nbsp; &amp;nbsp;description: path with which the proxy should communicate.&lt;/div&gt;&lt;div&gt;&amp;nbsp; &amp;nbsp; &amp;nbsp; &amp;nbsp; &amp;nbsp; &amp;nbsp; &amp;nbsp;examples: regex for example: /^(https?:\/\/)?([\da-z.-]+)\.([a-z.]{2,6})([/\w .-] *)*\/?$/&lt;/div&gt;&lt;div&gt;&lt;br&gt;&lt;/div&gt;&lt;div&gt;&lt;br&gt;&lt;/div&gt;&lt;div&gt;&amp;nbsp; &amp;nbsp; &amp;nbsp;auth (Authentication):&lt;/div&gt;&lt;div&gt;&amp;nbsp; &amp;nbsp; &amp;nbsp; &amp;nbsp; &amp;nbsp;type: object&lt;/div&gt;&lt;div&gt;&amp;nbsp; &amp;nbsp; &amp;nbsp; &amp;nbsp; &amp;nbsp;description: object responsible for sending provider credentials to the backend&lt;/div&gt;&lt;div&gt;&lt;br&gt;&lt;/div&gt;&lt;div&gt;&lt;br&gt;&lt;/div&gt;&lt;div&gt;&amp;nbsp; &amp;nbsp; &amp;nbsp; &amp;nbsp; &amp;nbsp;type (dropdown): enum&lt;/div&gt;&lt;div&gt;&amp;nbsp; &amp;nbsp; &amp;nbsp; &amp;nbsp; &amp;nbsp;description: responsible for describing the type of object that will be sent in the &quot;properites&quot; field&lt;/div&gt;&lt;div&gt;&amp;nbsp; &amp;nbsp; &amp;nbsp; &amp;nbsp; &amp;nbsp;enum: | basicAuth | oauth2.0&lt;/div&gt;&lt;div&gt;&lt;br&gt;&lt;/div&gt;&lt;div&gt;&lt;br&gt;&lt;/div&gt;&lt;div&gt;&amp;nbsp; &amp;nbsp; &amp;nbsp; &amp;nbsp; &amp;nbsp;properties (populated according to the selected type):&lt;/div&gt;&lt;div&gt;&amp;nbsp; &amp;nbsp; &amp;nbsp; &amp;nbsp; &amp;nbsp; &amp;nbsp; &amp;nbsp;type: object&lt;/div&gt;&lt;div&gt;&amp;nbsp; &amp;nbsp; &amp;nbsp; &amp;nbsp; &amp;nbsp; &amp;nbsp; &amp;nbsp;description: credentials that will be used by the proxy to authenticate with the provider&lt;/div&gt;&lt;div&gt;&amp;nbsp; &amp;nbsp; &amp;nbsp; &amp;nbsp; &amp;nbsp; &amp;nbsp; &amp;nbsp;types:&lt;/div&gt;&lt;div&gt;&amp;nbsp; &amp;nbsp; &amp;nbsp; &amp;nbsp; &amp;nbsp; &amp;nbsp; &amp;nbsp; &amp;nbsp; &amp;nbsp;noAuth: {}&lt;/div&gt;&lt;div&gt;&amp;nbsp; &amp;nbsp; &amp;nbsp; &amp;nbsp; &amp;nbsp; &amp;nbsp; &amp;nbsp; &amp;nbsp; &amp;nbsp;basicAuth: {username: &quot;string&quot;, password: &quot;string&quot;}&lt;/div&gt;&lt;div&gt;&amp;nbsp; &amp;nbsp; &amp;nbsp; &amp;nbsp; &amp;nbsp; &amp;nbsp; &amp;nbsp; &amp;nbsp; &amp;nbsp;oauth2.0: {cliendId: &quot;&quot;, clientSecret:&quot;&quot;, tokenUrl: &quot;&quot;}&lt;/div&gt;&lt;div&gt;&lt;br&gt;&lt;/div&gt;&lt;div&gt;&lt;br&gt;&lt;/div&gt;&lt;div&gt;product:&lt;/div&gt;&lt;div&gt;&amp;nbsp; &amp;nbsp; &amp;nbsp;name (Product):&lt;/div&gt;&lt;div&gt;&amp;nbsp; &amp;nbsp; &amp;nbsp; &amp;nbsp; &amp;nbsp;type: string&lt;/div&gt;&lt;div&gt;&amp;nbsp; &amp;nbsp; &amp;nbsp; &amp;nbsp; &amp;nbsp;validations: alphabetic only, must not contain spaces, special characters or numbers.&lt;/div&gt;&lt;div&gt;&amp;nbsp; &amp;nbsp; &amp;nbsp; &amp;nbsp; &amp;nbsp;description: Product that will be linked to the proxy&lt;/div&gt;&lt;div&gt;&lt;br&gt;&lt;/div&gt;&lt;div&gt;&lt;br&gt;&lt;/div&gt;&lt;div&gt;application:&lt;/div&gt;&lt;div&gt;&amp;nbsp; &amp;nbsp; &amp;nbsp;name(APP):&lt;/div&gt;&lt;div&gt;&amp;nbsp; &amp;nbsp; &amp;nbsp; &amp;nbsp; &amp;nbsp;type: string&lt;/div&gt;&lt;div&gt;&amp;nbsp; &amp;nbsp; &amp;nbsp; &amp;nbsp; &amp;nbsp;validations:&lt;/div&gt;&lt;div&gt;&amp;nbsp; &amp;nbsp; &amp;nbsp; &amp;nbsp; &amp;nbsp;description: Application linked to Product&lt;/div&gt;" style="text;html=1;strokeColor=none;fillColor=none;align=left;verticalAlign=middle;whiteSpace=wrap;rounded=0;" parent="1" vertex="1">
          <mxGeometry x="-610" y="-40" width="550" height="1350" as="geometry" />
        </mxCell>
      </root>
    </mxGraphModel>
  </diagram>
  <diagram id="a1rk1K-brOHavBzDY-2m" name="Provider Authentication">
    <mxGraphModel dx="2514" dy="2108" grid="1" gridSize="10" guides="1" tooltips="1" connect="1" arrows="1" fold="1" page="1" pageScale="1" pageWidth="827" pageHeight="1169" math="0" shadow="0">
      <root>
        <mxCell id="0" />
        <mxCell id="1" parent="0" />
        <mxCell id="2OEivO9XegWyciURz4Rq-1" value="Client" style="shape=umlActor;verticalLabelPosition=bottom;verticalAlign=top;html=1;outlineConnect=0;" parent="1" vertex="1">
          <mxGeometry x="-30" y="40" width="30" height="60" as="geometry" />
        </mxCell>
        <mxCell id="2OEivO9XegWyciURz4Rq-11" value="&amp;nbsp;API Management" style="rounded=0;whiteSpace=wrap;html=1;spacingTop=0;" parent="1" vertex="1">
          <mxGeometry x="130" width="710" height="400" as="geometry" />
        </mxCell>
        <mxCell id="2OEivO9XegWyciURz4Rq-12" value="Proxy pipeline" style="rounded=0;whiteSpace=wrap;html=1;" parent="1" vertex="1">
          <mxGeometry x="170" y="20" width="630" height="140" as="geometry" />
        </mxCell>
        <mxCell id="2OEivO9XegWyciURz4Rq-19" style="edgeStyle=orthogonalEdgeStyle;rounded=0;orthogonalLoop=1;jettySize=auto;html=1;dashed=1;dashPattern=12 12;" parent="1" source="2OEivO9XegWyciURz4Rq-13" target="2OEivO9XegWyciURz4Rq-18" edge="1">
          <mxGeometry relative="1" as="geometry" />
        </mxCell>
        <mxCell id="2OEivO9XegWyciURz4Rq-21" style="edgeStyle=orthogonalEdgeStyle;rounded=0;orthogonalLoop=1;jettySize=auto;html=1;" parent="1" source="2OEivO9XegWyciURz4Rq-13" target="2OEivO9XegWyciURz4Rq-20" edge="1">
          <mxGeometry relative="1" as="geometry" />
        </mxCell>
        <mxCell id="2OEivO9XegWyciURz4Rq-13" value="Auth Policy" style="rounded=0;whiteSpace=wrap;html=1;" parent="1" vertex="1">
          <mxGeometry x="280" y="40" width="120" height="60" as="geometry" />
        </mxCell>
        <mxCell id="2OEivO9XegWyciURz4Rq-17" style="edgeStyle=orthogonalEdgeStyle;rounded=0;orthogonalLoop=1;jettySize=auto;html=1;dashed=1;dashPattern=12 12;" parent="1" source="2OEivO9XegWyciURz4Rq-1" target="2OEivO9XegWyciURz4Rq-13" edge="1">
          <mxGeometry relative="1" as="geometry" />
        </mxCell>
        <mxCell id="2OEivO9XegWyciURz4Rq-18" value="Provider" style="rounded=0;whiteSpace=wrap;html=1;" parent="1" vertex="1">
          <mxGeometry x="940" y="40" width="120" height="60" as="geometry" />
        </mxCell>
        <mxCell id="2OEivO9XegWyciURz4Rq-20" value="KeyValueMapping" style="rounded=0;whiteSpace=wrap;html=1;" parent="1" vertex="1">
          <mxGeometry x="280" y="270" width="120" height="60" as="geometry" />
        </mxCell>
        <mxCell id="UBKz8Zc8Gr3VwOZmz1Q9-2" value="" style="endArrow=none;dashed=1;html=1;rounded=0;" parent="1" edge="1">
          <mxGeometry width="50" height="50" relative="1" as="geometry">
            <mxPoint x="40" y="400" as="sourcePoint" />
            <mxPoint x="40" as="targetPoint" />
          </mxGeometry>
        </mxCell>
        <mxCell id="UBKz8Zc8Gr3VwOZmz1Q9-3" value="" style="endArrow=none;dashed=1;html=1;rounded=0;" parent="1" edge="1">
          <mxGeometry width="50" height="50" relative="1" as="geometry">
            <mxPoint x="880" y="400" as="sourcePoint" />
            <mxPoint x="880" as="targetPoint" />
          </mxGeometry>
        </mxCell>
        <mxCell id="UBKz8Zc8Gr3VwOZmz1Q9-5" value="Integration Suite API Management&amp;nbsp; Proxy Policies Pipeline" style="text;html=1;align=center;verticalAlign=middle;resizable=0;points=[];autosize=1;strokeColor=none;fillColor=none;" parent="1" vertex="1">
          <mxGeometry x="320" y="-60" width="330" height="30" as="geometry" />
        </mxCell>
        <mxCell id="UBKz8Zc8Gr3VwOZmz1Q9-6" value="Backend Provider" style="text;html=1;align=center;verticalAlign=middle;resizable=0;points=[];autosize=1;strokeColor=none;fillColor=none;" parent="1" vertex="1">
          <mxGeometry x="940" y="-60" width="120" height="30" as="geometry" />
        </mxCell>
      </root>
    </mxGraphModel>
  </diagram>
</mxfile>
